<svg xmlns="http://www.w3.org/2000/svg" width="1200" height="760" viewBox="0 0 1200 760">
<defs><linearGradient id="g" x1="0" x2="1" y1="0" y2="1"><stop stop-color="#172554"/><stop offset="1" stop-color="#0f766e"/></linearGradient></defs>
<rect width="1200" height="760" rx="28" fill="#0b1120"/>
<rect x="42" y="42" width="1116" height="676" rx="20" fill="url(#g)"/>
<rect x="78" y="82" width="1044" height="66" rx="14" fill="#ffffff" opacity=".12"/>
<circle cx="112" cy="115" r="13" fill="#38bdf8"/><circle cx="150" cy="115" r="13" fill="#34d399"/><circle cx="188" cy="115" r="13" fill="#fbbf24"/>
<rect x="92" y="182" width="250" height="500" rx="18" fill="#ffffff" opacity=".09"/>
<rect x="380" y="182" width="700" height="150" rx="18" fill="#ffffff" opacity=".10"/>
<rect x="380" y="356" width="335" height="326" rx="18" fill="#ffffff" opacity=".10"/>
<rect x="745" y="356" width="335" height="326" rx="18" fill="#ffffff" opacity=".10"/>
<text x="95" y="230" fill="#fff" font-size="30" font-family="Arial" font-weight="700">LMS</text>
<text x="380" y="245" fill="#fff" font-size="42" font-family="Arial" font-weight="700">Class Management</text>
<text x="380" y="290" fill="#dbeafe" font-size="24" font-family="Arial">Authentication • Functional • API • UI</text>
<text x="412" y="430" fill="#fff" font-size="30" font-family="Arial" font-weight="700">35</text>
<text x="412" y="468" fill="#dbeafe" font-size="20" font-family="Arial">Manual Test Cases</text>
<text x="777" y="430" fill="#fff" font-size="30" font-family="Arial" font-weight="700">20/20</text>
<text x="777" y="468" fill="#dbeafe" font-size="20" font-family="Arial">Automation Passed</text>
<text x="95" y="640" fill="#bfdbfe" font-size="20" font-family="Arial">QA CASE STUDY • PROJECT 01</text>
</svg>